<?xml version="1.0" standalone="no"?>
<svg xmlns="http://www.w3.org/2000/svg" viewBox="0 0 159 63" width="159" height="63"><g fill="#deab26" color="#deab26" transform="translate(57.369 0) scale(0.8148149) "><svg width="54.0" height="43.0" x="0.0" y="0.0" viewBox="0 0 54 43"><path fill="currentColor" fill-rule="evenodd" d="M32.91 7.132a1.076 1.076 0 0 1-.803-1.796c1.739-1.943 3.961-3.431 6.604-4.422C44.14-1.14 49.186.27 53.71 5.102a1.078 1.078 0 1 1-1.574 1.474c-3.922-4.19-8.064-5.384-12.664-3.645-2.317.869-4.254 2.161-5.758 3.842-.212.239-.507.36-.803.36M9.594 20.353c-.024 0-.05 0-.075-.003a1.077 1.077 0 0 1-1.001-1.148c.01-.163.019-.305.025-.43a8.384 8.384 0 0 1-.362-.03l-.136.496a1.077 1.077 0 1 1-2.078-.572l.127-.461-.187-.065-.213.488a1.077 1.077 0 1 1-1.976-.861l.242-.554-.239-.151-.504.52a1.077 1.077 0 1 1-1.548-1.5l1.114-1.15c.355-.367.92-.434 1.35-.16l1.654 1.046 1.919.662c.546.13 1.143.177 1.775.14l.02-.002a9.233 9.233 0 0 0 2.207-.418l.004-.001a13.913 13.913 0 0 0 1.795-.853 52.783 52.783 0 0 0 1.475-1.065 1.079 1.079 0 0 1 1.397.089l1.15 1.113a1.077 1.077 0 1 1-1.501 1.548l-.495-.48c-.008.007-.016.012-.024.017.25.45.347.661.402.797a1.078 1.078 0 0 1-2.001.801 5.45 5.45 0 0 0-.242-.472c-.109.053-.219.105-.33.156l.2.695a1.078 1.078 0 1 1-2.07.598l-.176-.606c-.196.043-.39.08-.584.112a27.08 27.08 0 0 1-.04.7 1.078 1.078 0 0 1-1.074 1.004m32.587 0c-.024 0-.05 0-.075-.003a1.077 1.077 0 0 1-1.001-1.148c.01-.163.019-.305.025-.43a8.579 8.579 0 0 1-.362-.03l-.135.496a1.078 1.078 0 0 1-2.08-.571l.128-.462-.187-.065-.213.488a1.078 1.078 0 0 1-1.976-.862l.242-.553-.226-.143-.468.5a1.078 1.078 0 0 1-1.573-1.475l1.078-1.15a1.08 1.08 0 0 1 1.363-.174l1.653 1.047 1.919.662c.546.13 1.144.177 1.774.14l.02-.002a9.232 9.232 0 0 0 2.208-.418l.005-.001a11.44 11.44 0 0 0 1.794-.853c.542-.361 1.03-.714 1.454-1.048a1.077 1.077 0 0 1 1.418.072l1.15 1.113a1.078 1.078 0 1 1-1.5 1.548l-.488-.472-.022.016c.186.322.314.557.391.709a1.079 1.079 0 0 1-1.928.964 11.7 11.7 0 0 0-.304-.55c-.11.054-.224.106-.339.158l.2.69a1.078 1.078 0 1 1-2.072.597l-.174-.606c-.197.043-.391.08-.584.112a26.9 26.9 0 0 1-.04.7 1.078 1.078 0 0 1-1.075 1.004M23.082 42.472c-.76 0-1.392-.206-1.907-.614-.416-.333-.925-.955-1.015-2.05a.924.924 0 0 1-.005-.089v-.862L20.05 6.272c-3.837-3.944-7.888-5.037-12.375-3.341-2.319.87-4.27 2.164-5.798 3.848A1.078 1.078 0 1 1 .28 5.33C2.042 3.39 4.274 1.904 6.914.914 12.344-1.14 17.39.27 21.912 5.102c.186.2.29.461.291.733l.108 33.834c.039.368.165.47.207.502.183.144 1.35.735 5.966-2.22a1.078 1.078 0 1 1 1.163 1.814c-2.832 1.814-4.98 2.707-6.565 2.707"></path></svg></g><path fill="#0f1c93" fill-rule="nonzero" d="M1.73 5.09L1.73 5.09Q1.73 5.52 1.92 5.95L1.92 5.95Q1.70 6.24 1.20 6.24Q0.70 6.24 0.35 5.88Q0 5.52 0 4.70L0 4.70Q0 2.81 1.15 1.62Q2.30 0.43 4.22 0.43L4.22 0.43Q7.39 0.43 7.99 3.89L7.99 3.89Q8.52 2.28 9.72 1.32Q10.92 0.36 12.53 0.36L12.53 0.36Q16.08 0.38 17.11 4.25L17.11 4.25Q17.59 2.50 18.83 1.43Q20.06 0.36 21.77 0.36L21.77 0.36Q24.26 0.38 25.50 2.24Q26.74 4.10 26.74 7.22L26.74 7.22L26.74 14.02Q26.74 15.41 27.30 16.25Q27.86 17.09 28.78 17.09L28.78 17.09Q31.03 17.09 31.03 12.58L31.03 12.58Q31.06 12.43 31.28 12.43Q31.51 12.43 31.63 12.50L31.63 12.50Q31.99 12.77 31.99 13.68L31.99 13.68Q31.99 15.70 31.03 16.94Q30.07 18.19 28.49 18.19L28.49 18.19Q26.18 18.19 25.32 16.58L25.32 16.58Q24.55 15.12 24.55 12.58L24.55 12.58L24.55 7.22Q24.55 1.56 21.77 1.56L21.77 1.56Q19.70 1.56 18.59 3.38Q17.47 5.21 17.47 8.23L17.47 8.23L17.47 16.58Q17.47 17.30 17.11 17.68Q16.75 18.05 16.22 18.05Q15.70 18.05 15.31 17.71L15.31 17.71L15.31 7.22Q15.31 1.56 12.53 1.56L12.53 1.56Q10.32 1.56 9.26 3.68Q8.21 5.81 8.21 9.38L8.21 9.38L8.21 12.46Q8.21 15.43 7.26 17.17Q6.31 18.91 4.40 18.91Q2.50 18.91 1.54 18.04Q0.58 17.16 0.58 15.72L0.58 15.72Q0.58 13.87 1.78 13.87L1.78 13.87Q2.06 13.87 2.28 14.00Q2.50 14.14 2.64 14.42L2.64 14.42Q2.45 14.93 2.45 15.92Q2.45 16.92 2.96 17.42Q3.48 17.93 4.27 17.93L4.27 17.93Q5.98 17.93 5.98 13.90L5.98 13.90L5.98 4.61Q5.98 3.22 5.41 2.38Q4.85 1.54 3.88 1.54Q2.90 1.54 2.32 2.32Q1.73 3.10 1.73 5.09ZM38.06 7.54L38.06 7.54Q38.38 6.84 39.06 6.84Q39.74 6.84 40.08 7.18L40.08 7.18L40.08 14.06Q40.08 15.43 40.51 16.13Q40.94 16.82 41.69 16.82L41.69 16.82Q43.94 16.82 43.94 12.14L43.94 12.14Q43.97 12 44.30 12L44.30 12Q44.74 12 44.74 13.27L44.74 13.27Q44.74 15.31 43.86 16.54Q42.98 17.76 41.40 17.76L41.40 17.76Q38.98 17.76 38.18 15.62L38.18 15.62Q37.73 16.61 36.94 17.18Q36.14 17.76 35.14 17.76L35.14 17.76Q30.94 17.76 30.94 12.26L30.94 12.26Q30.94 9.48 32.24 8.16Q33.55 6.84 35.71 6.84L35.71 6.84Q37.37 6.84 38.06 7.54ZM33.55 15.22Q33.89 16.27 34.32 16.55Q34.75 16.82 35.47 16.82Q36.19 16.82 37.04 15.92Q37.90 15.02 37.90 13.58L37.90 13.58L37.90 10.30Q37.90 9.17 37.31 8.47Q36.72 7.78 35.99 7.78Q35.26 7.78 34.82 7.92Q34.39 8.06 34.01 8.52L34.01 8.52Q33.22 9.38 33.22 12.26L33.22 12.26Q33.22 14.16 33.55 15.22ZM50.09 16.30L50.09 16.30L50.09 10.54Q50.09 7.68 48.65 7.68L48.65 7.68Q47.45 7.68 46.81 9.00Q46.18 10.32 46.18 13.66L46.18 13.66L46.18 17.42Q45.94 17.76 45.34 17.76Q44.74 17.76 44.38 17.39Q44.02 17.02 44.02 16.30L44.02 16.30L44.02 7.18Q44.26 6.84 44.86 6.84Q45.46 6.84 45.82 7.21Q46.18 7.58 46.18 8.30L46.18 8.30Q46.99 6.84 48.94 6.84L48.94 6.84Q51.22 6.84 52.01 8.78L52.01 8.78Q52.82 6.84 55.06 6.84L55.06 6.84Q56.62 6.84 57.54 7.82Q58.46 8.81 58.46 10.66L58.46 10.66L58.46 14.06Q58.46 15.43 58.90 16.13Q59.33 16.82 60.18 16.82Q61.03 16.82 61.68 15.76Q62.33 14.69 62.33 12.14L62.33 12.14Q62.35 12 62.69 12L62.69 12Q63.12 12 63.12 13.27L63.12 13.27Q63.12 15.31 62.24 16.54Q61.37 17.76 59.69 17.76Q58.01 17.76 57.11 16.61Q56.21 15.46 56.21 13.34L56.21 13.34L56.21 10.54Q56.21 7.68 54.77 7.68L54.77 7.68Q52.32 7.68 52.32 13.70L52.32 13.70L52.32 17.42Q52.08 17.76 51.47 17.76Q50.86 17.76 50.47 17.39Q50.09 17.02 50.09 16.30ZM62.52 4.49Q62.11 4.08 62.11 3.48Q62.11 2.88 62.52 2.46Q62.93 2.04 63.53 2.04Q64.13 2.04 64.55 2.46Q64.97 2.88 64.97 3.48Q64.97 4.08 64.55 4.49Q64.13 4.90 63.53 4.90Q62.93 4.90 62.52 4.49ZM62.42 8.30Q62.42 7.58 62.78 7.21Q63.14 6.84 63.70 6.84Q64.25 6.84 64.58 7.18L64.58 7.18L64.58 14.06Q64.58 15.43 65.11 16.13Q65.64 16.82 66.55 16.82Q67.46 16.82 68.26 15.72Q69.05 14.62 69.05 12.14L69.05 12.14Q69.10 12 69.41 12L69.41 12Q69.84 12 69.84 13.27L69.84 13.27Q69.84 15.12 68.83 16.44Q67.82 17.76 66.26 17.76L66.26 17.76Q64.32 17.76 63.37 16.61Q62.42 15.46 62.42 13.34L62.42 13.34L62.42 8.30ZM79.18 12.29L79.18 12.29Q79.68 12.29 79.68 13.06L79.68 13.06Q79.68 14.83 78.44 16.30Q77.21 17.76 74.69 17.76Q72.17 17.76 70.64 16.40Q69.12 15.05 69.12 12.42Q69.12 9.79 70.46 8.32Q71.81 6.84 73.90 6.84L73.90 6.84Q75.41 6.84 76.10 7.64Q76.80 8.45 76.80 9.55L76.80 9.55Q76.80 11.35 75.30 12.54Q73.80 13.73 71.47 13.73L71.47 13.73Q71.69 15.26 72.59 16.04Q73.49 16.82 74.96 16.82Q76.44 16.82 77.63 15.71Q78.82 14.59 78.82 12.43L78.82 12.43Q78.84 12.29 79.18 12.29ZM71.40 12.62L71.40 12.62L71.40 12.84Q72.89 12.65 73.98 11.90Q75.07 11.16 75.07 9.70L75.07 9.70Q75.07 8.76 74.66 8.27Q74.26 7.78 73.51 7.78L73.51 7.78Q72.38 7.78 71.89 8.88Q71.40 9.98 71.40 12.62ZM103.20 12.22L103.20 12.22Q103.32 12.07 103.62 12.07Q103.92 12.07 104.11 12.29Q104.30 12.50 104.30 13.10Q104.30 13.70 103.91 14.70Q103.51 15.70 102.74 16.69Q101.98 17.69 100.62 18.34Q99.26 18.98 97.58 18.98L97.58 18.98Q93.70 18.98 91.34 16.48Q88.99 13.97 88.99 9.32Q88.99 4.68 91.21 2.34Q93.43 0 97.03 0L97.03 0Q99.36 0 100.68 1.20Q102 2.40 102 3.86L102 3.86Q102 4.46 101.64 4.82Q101.28 5.18 100.92 5.18L100.92 5.18Q100.25 5.18 100.01 4.90L100.01 4.90Q100.15 4.54 100.15 4.01L100.15 4.01Q100.15 2.71 99.32 1.94Q98.50 1.18 96.91 1.18L96.91 1.18Q94.54 1.18 92.87 3.44Q91.20 5.71 91.20 9.46Q91.20 13.20 93.05 15.49Q94.90 17.78 97.49 17.78Q100.08 17.78 101.64 16.21Q103.20 14.64 103.20 12.22ZM113.26 12.29L113.26 12.29Q113.76 12.29 113.76 13.06L113.76 13.06Q113.76 14.83 112.52 16.30Q111.29 17.76 108.77 17.76Q106.25 17.76 104.72 16.40Q103.20 15.05 103.20 12.42Q103.20 9.79 104.54 8.32Q105.89 6.84 107.98 6.84L107.98 6.84Q109.49 6.84 110.18 7.64Q110.88 8.45 110.88 9.55L110.88 9.55Q110.88 11.35 109.38 12.54Q107.88 13.73 105.55 13.73L105.55 13.73Q105.77 15.26 106.67 16.04Q107.57 16.82 109.04 16.82Q110.52 16.82 111.71 15.71Q112.90 14.59 112.90 12.43L112.90 12.43Q112.92 12.29 113.26 12.29ZM105.48 12.62L105.48 12.62L105.48 12.84Q106.97 12.65 108.06 11.90Q109.15 11.16 109.15 9.70L109.15 9.70Q109.15 8.76 108.74 8.27Q108.34 7.78 107.59 7.78L107.59 7.78Q106.46 7.78 105.97 8.88Q105.48 9.98 105.48 12.62ZM117.38 12.86Q116.42 12.53 115.48 12.16Q114.53 11.78 113.88 11.09Q113.23 10.39 113.23 9.30Q113.23 8.21 114.24 7.52Q115.25 6.84 117.18 6.84Q119.11 6.84 120.20 7.51Q121.30 8.18 121.30 9.07L121.30 9.07Q121.30 9.50 120.97 9.77Q120.65 10.03 120.34 10.03L120.34 10.03Q119.74 10.03 119.54 9.74L119.54 9.74Q119.69 9.58 119.69 9.08Q119.69 8.59 118.94 8.18Q118.20 7.78 117.29 7.78Q116.38 7.78 115.78 8.11Q115.18 8.45 115.18 9.13Q115.18 9.82 115.86 10.32Q116.54 10.82 117.52 11.16Q118.49 11.50 119.46 11.88Q120.43 12.26 121.12 12.97Q121.80 13.68 121.80 14.71L121.80 14.71Q121.80 16.25 120.47 17.00Q119.14 17.76 116.96 17.76Q114.79 17.76 113.44 16.50Q112.08 15.24 112.08 13.37L112.08 13.37Q112.08 12.70 112.34 12.31Q112.61 11.93 112.94 11.93L112.94 11.93Q113.57 11.93 113.66 12.14L113.66 12.14L113.71 12.22Q113.57 12.58 113.57 13.10L113.57 13.10Q113.57 14.71 114.50 15.77Q115.44 16.82 117.10 16.82L117.10 16.82Q119.64 16.82 119.66 15.02L119.66 15.02Q119.66 13.66 117.38 12.86L117.38 12.86ZM133.30 12.29L133.30 12.29Q133.80 12.29 133.80 13.06L133.80 13.06Q133.80 14.83 132.56 16.30Q131.33 17.76 128.81 17.76Q126.29 17.76 124.76 16.40Q123.24 15.05 123.24 12.42Q123.24 9.79 124.58 8.32Q125.93 6.84 128.02 6.84L128.02 6.84Q129.53 6.84 130.22 7.64Q130.92 8.45 130.92 9.55L130.92 9.55Q130.92 11.35 129.42 12.54Q127.92 13.73 125.59 13.73L125.59 13.73Q125.81 15.26 126.71 16.04Q127.61 16.82 129.08 16.82Q130.56 16.82 131.75 15.71Q132.94 14.59 132.94 12.43L132.94 12.43Q132.96 12.29 133.30 12.29ZM125.52 12.62L125.52 12.62L125.52 12.84Q127.01 12.65 128.10 11.90Q129.19 11.16 129.19 9.70L129.19 9.70Q129.19 8.76 128.78 8.27Q128.38 7.78 127.63 7.78L127.63 7.78Q126.50 7.78 126.01 8.88Q125.52 9.98 125.52 12.62ZM132.98 4.75Q132.98 4.03 133.34 3.66Q133.70 3.29 134.26 3.29Q134.81 3.29 135.14 3.62L135.14 3.62L135.14 7.18L138.43 7.18Q138.94 7.18 139.09 7.37Q139.25 7.56 139.25 8.02L139.25 8.02L135.14 8.02L135.14 14.06Q135.14 15.38 135.90 16.10Q136.66 16.82 137.64 16.82L137.64 16.82Q139.13 16.82 139.82 15.72Q140.52 14.62 140.52 12.14L140.52 12.14Q140.57 12 140.88 12L140.88 12Q141.31 12 141.31 13.27L141.31 13.27Q141.31 15.22 140.34 16.49Q139.37 17.76 137.35 17.76Q135.34 17.76 134.16 16.70Q132.98 15.65 132.98 13.56L132.98 13.56L132.98 4.75ZM140.57 4.75Q140.57 4.03 140.93 3.66Q141.29 3.29 141.84 3.29Q142.39 3.29 142.73 3.62L142.73 3.62L142.73 7.18L146.02 7.18Q146.52 7.18 146.68 7.37Q146.83 7.56 146.83 8.02L146.83 8.02L142.73 8.02L142.73 14.06Q142.73 15.38 143.48 16.10Q144.24 16.82 145.22 16.82L145.22 16.82Q146.71 16.82 147.41 15.72Q148.10 14.62 148.10 12.14L148.10 12.14Q148.15 12 148.46 12L148.46 12Q148.90 12 148.90 13.27L148.90 13.27Q148.90 15.22 147.92 16.49Q146.95 17.76 144.94 17.76Q142.92 17.76 141.74 16.70Q140.57 15.65 140.57 13.56L140.57 13.56L140.57 4.75ZM158.23 12.29L158.23 12.29Q158.74 12.29 158.74 13.06L158.74 13.06Q158.74 14.83 157.50 16.30Q156.26 17.76 153.74 17.76Q151.22 17.76 149.70 16.40Q148.18 15.05 148.18 12.42Q148.18 9.79 149.52 8.32Q150.86 6.84 152.95 6.84L152.95 6.84Q154.46 6.84 155.16 7.64Q155.86 8.45 155.86 9.55L155.86 9.55Q155.86 11.35 154.36 12.54Q152.86 13.73 150.53 13.73L150.53 13.73Q150.74 15.26 151.64 16.04Q152.54 16.82 154.02 16.82Q155.50 16.82 156.68 15.71Q157.87 14.59 157.87 12.43L157.87 12.43Q157.90 12.29 158.23 12.29ZM150.46 12.62L150.46 12.62L150.46 12.84Q151.94 12.65 153.04 11.90Q154.13 11.16 154.13 9.70L154.13 9.70Q154.13 8.76 153.72 8.27Q153.31 7.78 152.57 7.78L152.57 7.78Q151.44 7.78 150.95 8.88Q150.46 9.98 150.46 12.62Z" transform="translate(0, 43.038)"></path></svg>